<?xml version="1.0" encoding="UTF-8" standalone="no"?>
<!DOCTYPE svg PUBLIC "-//W3C//DTD SVG 1.1//EN" "http://www.w3.org/Graphics/SVG/1.1/DTD/svg11.dtd">
<svg width="100%" height="100%" viewBox="0 0 1920 1080" version="1.1" xmlns="http://www.w3.org/2000/svg" xmlns:xlink="http://www.w3.org/1999/xlink" xml:space="preserve" xmlns:serif="http://www.serif.com/" style="fill-rule:evenodd;clip-rule:evenodd;stroke-linejoin:round;stroke-miterlimit:2;">
    <g>
        <path d="M720,644.102L720,435.898L747.761,435.898L759.742,475.362L759.742,644.102L720,644.102ZM862.018,644.102C862.018,644.102 835.611,643.883 805.327,582.006C767.893,505.518 740.163,483.252 740.163,483.252L747.761,435.898C747.761,435.898 771.282,435.757 805.327,497.994C844.866,570.273 869.615,593.418 869.615,593.418L862.018,644.102ZM862.018,644.102L850.621,602.476L850.621,435.898L890.655,435.898L890.655,644.102L862.018,644.102Z" style="fill-rule:nonzero;"/>
        <path d="M988.548,643.971C976.08,643.971 964.976,641.341 955.235,636.081C945.689,630.821 938.189,623.516 932.734,614.165C927.279,604.814 924.552,594.002 924.552,581.729L924.552,497.994L963.125,497.994L963.125,580.852C963.125,586.697 964.099,591.762 966.047,596.048C967.995,600.139 970.917,603.256 974.814,605.398C978.71,607.541 983.288,608.613 988.548,608.613C996.535,608.613 1002.77,606.178 1007.25,601.307C1011.73,596.437 1013.97,589.619 1013.97,580.852L1013.97,497.994L1052.25,497.994L1052.25,581.729C1052.25,594.197 1049.52,605.106 1044.07,614.457C1038.81,623.808 1031.31,631.114 1021.57,636.374C1012.02,641.439 1001.02,643.971 988.548,643.971Z" style="fill-rule:nonzero;"/>
        <path d="M1103.39,643.971L1103.39,435.898L1141.67,435.898L1141.67,643.971L1103.39,643.971ZM1071.1,532.532L1071.1,497.994L1175.42,497.994L1175.42,532.532L1071.1,532.532Z" style="fill-rule:nonzero;"/>
        <path d="M1196.31,643.971L1196.31,497.994L1234.6,497.994L1234.6,643.971L1196.31,643.971ZM1234.6,561.113L1219.69,551.177C1221.44,533.839 1226.51,523.124 1234.89,513.189C1243.26,503.059 1255.34,497.994 1271.12,497.994C1277.94,497.994 1284.08,499.163 1289.53,501.5C1294.99,503.643 1299.95,504.325 1304.43,509.39L1280.47,536.859C1278.33,534.521 1275.7,532.768 1272.58,531.599C1269.66,530.43 1266.25,529.845 1262.36,529.845C1254.17,529.845 1247.45,532.475 1242.19,537.735C1237.13,542.8 1234.6,550.593 1234.6,561.113Z" style="fill-rule:nonzero;"/>
        <rect x="1317.88" y="540" width="38.573" height="103.971" style="fill-rule:nonzero;"/>
        <path d="M1543.53,503.838C1543.53,503.838 1549.32,472.956 1557.28,465.789C1564.76,459.051 1576.13,459.346 1583.25,466.247C1583.38,466.372 1576.91,467.487 1572.13,471.347C1569.67,473.328 1566.58,476.288 1564.04,479.791C1559.48,486.08 1555.98,493.223 1555.98,493.223C1555.98,493.223 1560.45,486.432 1565.5,480.633C1568.16,477.575 1570.97,475.057 1573.43,473.38C1578.97,469.595 1584.99,468.164 1585.12,468.334C1591.12,476.135 1590.2,487.383 1582.76,494.082C1574.8,501.249 1543.53,503.838 1543.53,503.838Z" style="fill:#4a7f45;"/>
        <path d="M1394.88,495.802L1394.88,435.898L1532.22,435.898L1532.22,470.686L1434.69,470.686L1434.69,501.025C1430.13,499.834 1421.45,497.912 1413.35,496.969C1403.7,495.844 1394.88,495.802 1394.88,495.802ZM1434.69,536.983L1434.69,643.971L1394.88,643.971L1394.88,531.708C1414.6,531.796 1424.65,534.401 1434.69,536.983Z"/>
        <path d="M1474.51,539.934C1435.06,539.935 1434.33,529.692 1394.88,529.517C1365.33,529.385 1337.16,534.521 1337.16,534.521C1341.92,529.387 1365.93,497.994 1394.88,497.994C1434.53,497.994 1434.86,508.441 1474.51,508.441C1503.26,508.44 1532.22,503.473 1532.22,503.473C1527.48,508.517 1503.21,539.934 1474.51,539.934Z" style="fill-rule:nonzero;"/>
        <rect x="1550.48" y="540" width="38.573" height="103.971" style="fill-rule:nonzero;"/>
        <path d="M1643.7,643.971L1643.7,435.898L1681.98,435.898L1681.98,643.971L1643.7,643.971ZM1610.68,532.532L1610.68,497.994L1715,497.994L1715,532.532L1610.68,532.532Z" style="fill-rule:nonzero;"/>
    </g>
    <g>
        <path d="M423.95,693.571C423.95,693.571 249.829,615.388 218.953,558.243C190.058,504.765 207.537,438.568 257.573,405.949C258.445,405.381 249.41,455.185 292.133,511.12C327.414,557.311 411.405,621.412 411.405,621.412C411.405,621.412 341.635,549.267 307.467,499.277C276.819,454.438 271.719,398.059 272.483,397.706C327.611,372.254 393.845,393.78 423.106,447.935C453.982,505.08 423.95,693.571 423.95,693.571Z" style="fill:#65aa5e;"/>
        <path d="M423.95,693.571C423.95,693.571 394.564,504.362 425.743,447.028C455.051,393.136 520.994,371.752 575.941,396.949C576.93,397.402 542.01,416.946 522.369,448.827C512.287,465.191 500.501,488.485 493.023,513.76C479.594,559.152 473.992,607.293 473.992,607.293C473.992,607.293 485.845,559.221 503.118,515.642C512.229,492.658 523.24,472.499 533.958,457.873C558.14,424.873 589.781,404.447 590.881,405.16C641.22,437.797 658.735,504.309 629.596,557.889C598.416,615.223 423.95,693.571 423.95,693.571Z" style="fill:#4a7f45;"/>
    </g>
</svg>
