<?xml version="1.0" encoding="UTF-8" standalone="no"?>
<!DOCTYPE svg PUBLIC "-//W3C//DTD SVG 1.1//EN" "http://www.w3.org/Graphics/SVG/1.1/DTD/svg11.dtd">
<svg width="100%" height="100%" viewBox="0 0 1510 308" version="1.1" xmlns="http://www.w3.org/2000/svg" xmlns:xlink="http://www.w3.org/1999/xlink" xml:space="preserve" xmlns:serif="http://www.serif.com/" style="fill-rule:evenodd;clip-rule:evenodd;stroke-linejoin:round;stroke-miterlimit:2;">
    <g>
        <path d="M515,257.673L515,49.468L542.761,49.468L554.742,88.932L554.742,257.673L515,257.673ZM657.018,257.673C657.018,257.673 630.611,257.454 600.327,195.577C562.893,119.089 535.163,96.822 535.163,96.822L542.761,49.468C542.761,49.468 566.282,49.327 600.327,111.564C639.866,183.844 664.615,206.988 664.615,206.988L657.018,257.673ZM657.018,257.673L645.621,216.047L645.621,49.468L685.655,49.468L685.655,257.673L657.018,257.673Z" style="fill:#9b9b9b;fill-rule:nonzero;"/>
        <path d="M783.548,257.542C771.08,257.542 759.976,254.912 750.235,249.652C740.689,244.392 733.189,237.087 727.734,227.736C722.279,218.385 719.552,207.573 719.552,195.299L719.552,111.564L758.125,111.564L758.125,194.423C758.125,200.267 759.099,205.332 761.047,209.618C762.995,213.709 765.917,216.826 769.814,218.969C773.71,221.112 778.288,222.183 783.548,222.183C791.535,222.183 797.769,219.748 802.25,214.878C806.73,210.008 808.971,203.189 808.971,194.423L808.971,111.564L847.251,111.564L847.251,195.299C847.251,207.767 844.524,218.677 839.069,228.028C833.809,237.379 826.309,244.684 816.568,249.944C807.023,255.009 796.016,257.542 783.548,257.542Z" style="fill:#9b9b9b;fill-rule:nonzero;"/>
        <path d="M898.389,257.542L898.389,49.468L936.67,49.468L936.67,257.542L898.389,257.542ZM866.099,146.103L866.099,111.564L970.421,111.564L970.421,146.103L866.099,146.103Z" style="fill:#9b9b9b;fill-rule:nonzero;"/>
        <path d="M991.314,257.542L991.314,111.564L1029.6,111.564L1029.6,257.542L991.314,257.542ZM1029.6,174.683L1014.69,164.748C1016.45,147.41 1021.51,136.695 1029.89,126.76C1038.26,116.629 1050.34,111.564 1066.12,111.564C1072.94,111.564 1079.08,112.733 1084.53,115.071C1089.99,117.214 1094.95,117.896 1099.43,122.961L1075.47,150.429C1073.33,148.092 1070.7,146.338 1067.58,145.169C1064.66,144 1061.25,143.416 1057.36,143.416C1049.17,143.416 1042.45,146.046 1037.19,151.306C1032.13,156.371 1029.6,164.163 1029.6,174.683Z" style="fill:#9b9b9b;fill-rule:nonzero;"/>
        <rect x="1112.88" y="153.571" width="38.573" height="103.971" style="fill:#9b9b9b;fill-rule:nonzero;"/>
        <path d="M1338.53,117.409C1338.53,117.409 1344.32,86.527 1352.28,79.359C1359.76,72.622 1371.13,72.917 1378.25,79.818C1378.38,79.942 1371.91,81.058 1367.13,84.918C1364.67,86.899 1361.58,89.859 1359.04,93.361C1354.48,99.651 1350.98,106.794 1350.98,106.794C1350.98,106.794 1355.45,100.003 1360.5,94.204C1363.16,91.145 1365.97,88.628 1368.43,86.951C1373.97,83.166 1379.99,81.734 1380.12,81.905C1386.12,89.706 1385.2,100.954 1377.76,107.652C1369.8,114.82 1338.53,117.409 1338.53,117.409Z" style="fill:#4a7f45;"/>
        <path d="M1189.88,109.373L1189.88,49.468L1327.22,49.468L1327.22,84.257L1229.69,84.257L1229.69,114.596C1225.13,113.405 1216.45,111.483 1208.35,110.539C1198.7,109.415 1189.88,109.373 1189.88,109.373ZM1229.69,150.554L1229.69,257.542L1189.88,257.542L1189.88,145.279C1209.6,145.367 1219.65,147.971 1229.69,150.554Z" style="fill:#9b9b9b;"/>
        <path d="M1269.51,153.505C1230.06,153.505 1229.33,143.263 1189.88,143.087C1160.33,142.956 1132.16,148.092 1132.16,148.092C1136.92,142.957 1160.93,111.564 1189.88,111.564C1189.88,111.564 1189.88,111.564 1189.88,111.564C1229.53,111.564 1229.86,122.011 1269.51,122.011C1298.26,122.011 1327.22,117.043 1327.22,117.043C1322.48,122.088 1298.21,153.505 1269.51,153.505Z" style="fill:#9b9b9b;fill-rule:nonzero;"/>
        <rect x="1345.48" y="153.571" width="38.573" height="103.971" style="fill:#9b9b9b;fill-rule:nonzero;"/>
        <path d="M1438.7,257.542L1438.7,49.468L1476.98,49.468L1476.98,257.542L1438.7,257.542ZM1405.68,146.103L1405.68,111.564L1510,111.564L1510,146.103L1405.68,146.103Z" style="fill:#9b9b9b;fill-rule:nonzero;"/>
    </g>
    <g>
        <path d="M218.95,307.141C218.95,307.141 44.829,228.958 13.953,171.814C-14.942,118.335 2.537,52.138 52.573,19.52C53.445,18.952 44.41,68.756 87.133,124.691C122.414,170.882 206.405,234.983 206.405,234.983C206.405,234.983 136.635,162.837 102.467,112.848C71.819,68.008 66.719,11.629 67.483,11.277C122.611,-14.175 188.845,7.351 218.106,61.506C248.982,118.65 218.95,307.141 218.95,307.141Z" style="fill:#65aa5e;"/>
        <path d="M218.95,307.141C218.95,307.141 189.564,117.932 220.743,60.599C250.051,6.706 315.994,-14.678 370.941,10.519C371.93,10.973 337.01,30.517 317.369,62.398C307.287,78.762 295.501,102.056 288.023,127.331C274.594,172.723 268.992,220.864 268.992,220.864C268.992,220.864 280.845,172.791 298.118,129.213C307.229,106.229 318.24,86.07 328.958,71.444C353.14,38.444 384.781,18.017 385.881,18.731C436.22,51.367 453.735,117.879 424.596,171.46C393.416,228.794 218.95,307.141 218.95,307.141Z" style="fill:#4a7f45;"/>
    </g>
</svg>
